<?xml version="1.0" standalone="no"?>
<!DOCTYPE svg PUBLIC "-//W3C//DTD SVG 20010904//EN"
 "http://www.w3.org/TR/2001/REC-SVG-20010904/DTD/svg10.dtd">
<svg version="1.0" xmlns="http://www.w3.org/2000/svg"
 width="1920.000000pt" height="1080.000000pt" viewBox="0 0 1920.000000 1080.000000"
 preserveAspectRatio="xMidYMid meet">

<g transform="translate(0.000000,1080.000000) scale(0.100000,-0.100000)"
fill="#000000" stroke="none">
<path d="M9480 6260 c-200 -26 -349 -98 -471 -226 -112 -120 -169 -228 -169
-324 0 -53 2 -60 20 -60 20 0 20 -7 20 -310 l0 -310 720 0 720 0 0 310 c0 303
0 310 20 310 18 0 20 7 20 57 0 47 -8 73 -44 148 -72 147 -212 281 -361 344
-130 54 -329 80 -475 61z m370 -50 c103 -30 196 -81 273 -148 77 -68 104 -99
147 -172 l32 -55 -58 56 c-128 121 -270 206 -419 250 -105 31 -332 34 -435 5
-147 -41 -303 -132 -429 -250 l-64 -61 24 43 c93 169 273 298 479 343 119 26
342 21 450 -11z m-152 -70 c131 -17 255 -65 382 -149 57 -37 230 -197 230
-212 0 -5 -25 -9 -56 -9 l-56 0 -69 74 c-154 165 -341 237 -577 223 -201 -12
-320 -65 -460 -204 l-94 -93 -59 0 -60 0 42 50 c97 115 281 239 421 284 133
44 225 53 356 36z m-108 -160 l0 -70 -70 0 -71 0 3 63 3 62 50 6 c28 3 58 7
68 7 15 2 17 -7 17 -68z m148 54 c8 -2 12 -24 12 -64 l0 -60 -68 0 -68 0 -2
70 -3 70 58 -6 c32 -3 64 -7 71 -10z m-308 -69 l0 -55 -71 0 -70 0 3 36 c3 33
8 38 48 55 25 10 55 18 68 18 20 1 22 -3 22 -54z m443 31 c33 -14 37 -20 37
-51 l0 -35 -70 0 -70 0 0 56 0 57 33 -6 c17 -3 49 -13 70 -21z m-613 -61 c0
-23 -4 -25 -42 -25 l-42 0 34 25 c44 31 50 31 50 0z m728 0 l37 -25 -43 0
c-38 0 -42 2 -42 25 0 14 2 25 6 25 3 0 22 -11 42 -25z m-728 -110 l0 -55
-112 0 -111 0 24 28 c76 87 68 82 136 82 l63 0 0 -55z m155 35 c-3 -10 -2 -35
4 -55 l9 -35 -69 0 -69 0 0 55 0 55 66 0 c60 0 65 -1 59 -20z m70 -9 c8 -37
39 -32 32 5 -4 21 -1 24 29 24 26 0 34 -4 34 -17 1 -10 3 -35 6 -55 l6 -38
-71 0 -71 0 1 55 c2 61 23 77 34 26z m190 7 c0 -32 19 -34 23 -3 3 20 8 26 25
23 19 -3 22 -10 25 -55 l4 -53 -66 0 c-35 0 -68 5 -71 10 -3 6 -3 30 1 55 6
40 9 45 33 45 21 0 27 -5 26 -22z m235 -33 l0 -55 -69 0 -70 0 3 28 c2 15 4
39 5 55 1 27 2 27 66 27 l65 0 0 -55z m208 -2 l45 -53 -112 0 -111 0 0 55 0
56 66 -3 67 -3 45 -52z m-528 -93 c0 -6 -128 -10 -365 -10 -237 0 -365 4 -365
10 0 6 128 10 365 10 237 0 365 -4 365 -10z m740 0 c0 -6 -102 -10 -285 -10
-183 0 -285 4 -285 10 0 6 102 10 285 10 183 0 285 -4 285 -10z m-917 -47
c-100 -2 -266 -2 -370 0 -103 1 -21 2 182 2 204 0 288 -1 188 -2z m780 0 c-78
-2 -208 -2 -290 0 -81 1 -17 3 142 3 160 0 226 -2 148 -3z m-603 -53 c0 -18
-7 -20 -81 -20 l-82 0 6 -55 6 -55 -50 0 -49 0 0 -65 c0 -49 4 -67 15 -71 12
-5 15 -32 15 -155 l0 -149 -235 0 -235 0 0 295 0 295 345 0 c338 0 345 0 345
-20z m710 -275 l0 -295 -235 0 -235 0 0 149 c0 123 3 150 15 155 11 4 15 22
15 71 l0 65 -56 0 c-47 0 -55 3 -50 16 3 9 6 42 6 75 l0 59 270 0 270 0 0
-295z m-561 188 c7 -8 -1 -12 -30 -15 -22 -2 -42 -2 -44 1 -3 2 5 17 17 34 20
28 22 29 34 11 7 -11 18 -24 23 -31z m-142 -28 c0 -11 -11 -15 -41 -14 -27 1
-33 3 -16 6 14 3 29 9 35 14 13 13 22 11 22 -6z m-124 -66 c10 -11 25 -18 33
-15 9 3 12 1 9 -4 -3 -6 2 -13 12 -16 55 -17 47 -21 -55 -22 l-112 -2 0 40 0
40 48 0 c36 0 52 -5 65 -21z m367 -18 l0 -39 -121 0 c-68 1 -115 5 -107 9 7 5
23 9 36 9 13 0 20 4 17 10 -3 6 5 10 19 10 28 0 47 20 19 21 -44 1 25 18 80
18 l57 1 0 -39z m-202 22 c-26 -2 -71 -2 -100 0 -29 2 -8 3 47 3 55 0 79 -1
53 -3z m-190 -246 l3 -147 -31 0 -30 0 0 138 c0 141 6 166 40 160 12 -3 15
-28 18 -151z m82 141 c0 -5 -13 -8 -30 -8 -16 0 -30 3 -30 8 0 4 14 7 30 7 17
0 30 -3 30 -7z m35 2 c3 -6 -1 -7 -9 -4 -18 7 -21 14 -7 14 6 0 13 -4 16 -10z
m71 3 c-10 -10 -56 -11 -56 -1 0 4 14 8 32 8 17 0 28 -3 24 -7z m94 -5 c0 -10
-51 -10 -67 0 -6 4 6 7 28 7 21 0 39 -3 39 -7z m70 -140 l0 -148 -25 0 -25 0
0 143 c0 79 3 146 6 150 3 3 15 5 25 4 18 -1 19 -11 19 -149z m-132 95 c-38
-2 -98 -2 -135 0 -38 2 -7 3 67 3 74 0 105 -1 68 -3z m-78 -138 l0 -105 -60 0
-60 0 0 105 0 105 60 0 60 0 0 -105z m140 0 l0 -105 -60 0 -60 0 0 105 0 105
60 0 60 0 0 -105z"/>
<path d="M8990 5320 l0 -180 50 0 50 0 0 180 0 180 -50 0 -50 0 0 -180z m80
110 c0 -38 -2 -40 -30 -40 -28 0 -30 2 -30 40 0 38 2 40 30 40 28 0 30 -2 30
-40z m0 -165 l0 -95 -30 0 -30 0 0 95 0 95 30 0 30 0 0 -95z"/>
<path d="M9172 5323 l3 -178 50 0 50 0 0 175 0 175 -53 3 -52 3 2 -178z m78
107 c0 -38 -2 -40 -30 -40 -28 0 -30 2 -30 40 0 38 2 40 30 40 28 0 30 -2 30
-40z m0 -165 l0 -95 -30 0 -30 0 0 95 0 95 30 0 30 0 0 -95z"/>
<path d="M9924 5487 c-2 -7 -3 -87 -2 -177 l3 -165 50 0 50 0 3 178 2 177 -50
0 c-32 0 -52 -5 -56 -13z m86 -57 c0 -38 -2 -40 -30 -40 -28 0 -30 2 -30 40 0
38 2 40 30 40 28 0 30 -2 30 -40z m0 -165 l0 -95 -30 0 -30 0 0 95 0 95 30 0
30 0 0 -95z"/>
<path d="M10104 5487 c-2 -7 -3 -87 -2 -177 l3 -165 53 -3 52 -3 0 180 0 181
-50 0 c-32 0 -52 -5 -56 -13z m86 -57 c0 -38 -2 -40 -30 -40 -28 0 -30 2 -30
40 0 38 2 40 30 40 28 0 30 -2 30 -40z m0 -165 l0 -95 -30 0 -30 0 0 95 0 95
30 0 30 0 0 -95z"/>
<path d="M9894 4918 c-26 -32 -27 -33 -6 -36 21 -3 92 42 92 59 0 5 -13 9 -29
9 -21 0 -37 -10 -57 -32z"/>
<path d="M9492 4913 c2 -22 8 -28 28 -28 20 0 26 6 28 28 3 24 0 27 -28 27
-28 0 -31 -3 -28 -27z"/>
<path d="M10267 4933 c-14 -14 -6 -42 14 -48 26 -8 54 16 46 39 -6 16 -48 22
-60 9z"/>
<path d="M8631 4912 c-12 -23 -101 -273 -101 -284 0 -4 16 -8 35 -8 31 0 35 3
41 35 l6 35 58 0 c58 0 59 0 70 -35 10 -31 16 -35 45 -35 l34 0 -53 153 -54
152 -35 3 c-27 2 -38 -2 -46 -16z m79 -159 c0 -2 -16 -3 -35 -3 -40 0 -42 6
-19 75 l17 48 18 -59 c10 -32 19 -60 19 -61z"/>
<path d="M11105 4921 c-29 -12 -44 -33 -51 -69 -5 -27 -1 -36 28 -64 18 -18
48 -41 66 -50 25 -14 33 -23 30 -40 -3 -20 -9 -23 -43 -23 -22 0 -50 4 -62 8
-21 7 -23 5 -23 -21 0 -36 13 -42 87 -42 47 0 59 4 84 29 51 52 31 106 -56
151 -35 18 -45 29 -43 44 3 18 10 21 55 21 43 -1 54 3 59 18 3 10 2 23 -3 28
-14 14 -104 20 -128 10z"/>
<path d="M7972 4799 l3 -121 33 -29 c27 -24 41 -29 83 -29 60 0 101 19 117 55
7 15 12 72 12 135 l0 110 -30 0 -30 0 0 -97 c0 -59 -5 -108 -13 -123 -14 -28
-54 -38 -87 -20 -18 10 -20 20 -20 125 l0 115 -36 0 -36 0 4 -121z"/>
<path d="M8300 4770 l0 -150 30 0 c30 0 30 1 30 55 l0 55 35 0 c75 0 122 53
108 121 -10 50 -45 69 -129 69 l-74 0 0 -150z m128 88 c31 -31 3 -78 -47 -78
-18 0 -21 6 -21 45 0 43 1 45 28 45 15 0 33 -5 40 -12z"/>
<path d="M9180 4916 c0 -3 23 -70 51 -151 l52 -146 35 3 35 3 44 130 c24 72
46 138 49 148 5 16 1 18 -27 15 -33 -3 -33 -4 -69 -117 l-35 -114 -35 117 -34
116 -33 0 c-18 0 -33 -2 -33 -4z"/>
<path d="M10725 4908 c-3 -7 -27 -73 -55 -147 -27 -73 -50 -135 -50 -137 0 -2
12 -4 28 -4 26 0 30 7 83 150 l57 150 -30 0 c-16 0 -31 -6 -33 -12z"/>
<path d="M10830 4770 l0 -150 90 0 c89 0 90 0 90 25 0 24 -3 25 -55 25 l-55 0
0 40 0 40 50 0 c47 0 50 2 50 25 0 23 -3 25 -50 25 l-50 0 0 35 0 35 55 0 c52
0 55 1 55 25 0 25 -1 25 -90 25 l-90 0 0 -150z"/>
<path d="M9636 4871 c-9 -16 -22 -31 -31 -34 -21 -9 -19 -24 5 -30 18 -5 20
-14 20 -80 0 -94 12 -109 79 -105 39 3 47 7 49 25 3 18 -2 22 -30 25 l-33 3
-3 68 -3 67 31 0 c23 0 30 4 30 20 0 16 -7 20 -30 20 -25 0 -30 4 -30 25 0 36
-35 33 -54 -4z"/>
<path d="M9850 4843 c-41 -21 -60 -54 -60 -106 0 -75 40 -116 113 -117 40 0
53 5 78 29 25 26 29 37 29 85 0 47 -4 61 -27 86 -36 39 -85 48 -133 23z m80
-53 c40 -40 20 -120 -30 -120 -24 0 -30 6 -40 34 -13 40 -5 82 19 96 23 13 29
12 51 -10z"/>
<path d="M10157 4840 c-30 -24 -37 -25 -37 -5 0 9 -9 15 -25 15 l-25 0 0 -115
0 -115 30 0 30 0 0 70 c0 78 19 110 65 110 21 0 25 5 25 30 0 36 -24 40 -63
10z"/>
<path d="M10428 4849 c-16 -6 -28 -14 -28 -17 1 -22 20 -30 65 -29 44 2 50 -1
53 -19 3 -19 -3 -22 -52 -26 -30 -2 -62 -10 -70 -17 -22 -19 -21 -84 2 -104
23 -21 81 -22 109 -2 19 13 22 13 27 0 3 -8 15 -15 26 -15 19 0 20 6 20 94 0
114 -12 136 -80 142 -25 2 -57 -1 -72 -7z m92 -138 c0 -20 -24 -51 -40 -51
-42 0 -55 45 -17 60 37 15 57 12 57 -9z"/>
<path d="M9490 4735 l0 -115 30 0 30 0 0 115 0 115 -30 0 -30 0 0 -115z"/>
<path d="M10260 4735 l0 -115 30 0 30 0 0 115 0 115 -30 0 -30 0 0 -115z"/>
<path d="M8940 4735 c0 -24 3 -25 55 -25 52 0 55 1 55 25 0 24 -3 25 -55 25
-52 0 -55 -1 -55 -25z"/>
</g>
</svg>
